<svg id="Слой_2" data-name="Слой 2" xmlns="http://www.w3.org/2000/svg" viewBox="0 0 101 101"><title>hhhArtboard 2 copy 10 копия 2</title><path d="M91.4,46.92a14.82,14.82,0,0,0-20.7-5.16,1.5,1.5,0,0,0,1.6,2.54,11.81,11.81,0,0,1,16,3.37,11.81,11.81,0,0,1-16,3.37,1.5,1.5,0,0,0-2.07.47,1.49,1.49,0,0,0-.22.93s0,0,0,.06V64c0,10.79-3.22,20.35-8.16,26.21a13.5,13.5,0,0,0-22.69,0C34.22,84.32,31,74.76,31,64V52.67A1.5,1.5,0,0,0,28.75,51a11.81,11.81,0,0,1-16-3.37,11.81,11.81,0,0,1,16-3.37,1.5,1.5,0,0,0,1.6-2.54,14.82,14.82,0,0,0-20.7,5.16,1.5,1.5,0,0,0,0,1.5A14.79,14.79,0,0,0,28,54.77V64c0,19.44,10.09,35.25,22.5,35.25S73,83.41,73,64V54.75a14.79,14.79,0,0,0,18.4-6.33A1.5,1.5,0,0,0,91.4,46.92ZM41.34,92.43a10.45,10.45,0,0,1,18.33,0,13.81,13.81,0,0,1-9.16,3.79A13.81,13.81,0,0,1,41.34,92.43Z"/><path d="M23.5,34a13.11,13.11,0,0,0,5.26-1.1A28.44,28.44,0,0,0,72.14,33a13.12,13.12,0,0,0,5,1A13.27,13.27,0,0,0,90.37,20.75a1.5,1.5,0,0,0-3,0,10.22,10.22,0,0,1-13.32,9.77A28.34,28.34,0,0,0,79,14.5a1.5,1.5,0,0,0-3,0,25.5,25.5,0,0,1-51,0,1.5,1.5,0,0,0-3,0,28.34,28.34,0,0,0,4.88,15.93,10.26,10.26,0,0,1-13.63-9.68,1.5,1.5,0,0,0-3,0A13.27,13.27,0,0,0,23.5,34Z"/><circle cx="41" cy="59.5" r="2.5"/><circle cx="60" cy="59.5" r="2.5"/></svg>