<?xml version="1.0" encoding="iso-8859-1"?>
<!-- Generator: Adobe Illustrator 21.1.0, SVG Export Plug-In . SVG Version: 6.00 Build 0)  -->
<svg version="1.1" id="Layer_1" xmlns="http://www.w3.org/2000/svg" xmlns:xlink="http://www.w3.org/1999/xlink" x="0px" y="0px"
	 viewBox="0 0 100.353 100.353" style="enable-background:new 0 0 100.353 100.353;" xml:space="preserve">
<path d="M93.527,40.596c-0.243-0.329-0.61-0.543-1.017-0.595c-0.544-0.069-9.314-1.134-18.184,0.313
	c-1.554-6.307-3.779-10.565-3.877-10.751c-0.381-0.721-1.264-1.003-1.993-0.643c-0.199,0.099-4.567,2.283-9.544,5.905
	c-3.766-6.014-7.95-10.432-8.267-10.763c-0.283-0.295-0.674-0.462-1.083-0.462s-0.8,0.167-1.083,0.462
	c-0.307,0.32-4.225,4.456-7.888,10.162c-5.027-3.674-9.464-5.89-9.665-5.99c-0.365-0.181-0.79-0.204-1.175-0.067
	c-0.384,0.139-0.696,0.429-0.862,0.802c-0.091,0.206-2.118,4.805-3.638,10.9c-8.726-1.347-17.232-0.314-17.761-0.246
	c-0.011,0.001-0.021,0.006-0.032,0.008c-0.011,0.002-0.021,0-0.032,0.002c-0.04,0.007-0.075,0.022-0.113,0.031
	c-0.05,0.013-0.1,0.023-0.148,0.041c-0.051,0.019-0.099,0.044-0.147,0.067c-0.04,0.02-0.081,0.037-0.119,0.06
	c-0.049,0.03-0.093,0.066-0.138,0.101c-0.033,0.026-0.067,0.049-0.098,0.077c-0.044,0.041-0.082,0.086-0.12,0.132
	c-0.022,0.026-0.048,0.048-0.069,0.076c-0.003,0.004-0.005,0.009-0.008,0.014c-0.038,0.053-0.068,0.11-0.099,0.167
	c-0.016,0.03-0.036,0.057-0.05,0.088c-0.034,0.075-0.06,0.154-0.081,0.234c-0.004,0.015-0.011,0.029-0.015,0.044
	c-0.045,0.191-0.054,0.393-0.019,0.599c0.031,0.183,0.221,1.267,0.606,2.93c1.377,5.939,5.25,19.256,13.3,25.217
	c5.697,4.225,12.154,6.493,17.673,6.493c2.481,0,4.772-0.459,6.72-1.404c1.58,0.825,3.281,1.277,5.063,1.277
	c1.815,0,3.545-0.467,5.149-1.322c2.138,1.258,4.734,1.871,7.578,1.871c5.463,0,11.834-2.26,17.604-6.539
	c10.298-7.63,13.765-27.312,13.907-28.146C93.87,41.339,93.771,40.925,93.527,40.596z M68.443,32.323
	c0.74,1.651,1.97,4.711,2.934,8.572c-2.827,0.659-5.566,1.621-7.956,2.998c-0.794-2.232-1.829-4.416-2.973-6.472
	C63.704,35.033,66.761,33.247,68.443,32.323z M31.019,31.679c1.711,0.943,4.762,2.732,8.007,5.121
	c-1.157,2.017-2.221,4.169-3.061,6.377c-2.361-1.261-5.025-2.145-7.758-2.753C29.159,36.654,30.322,33.453,31.019,31.679z
	 M21.892,67.101c-0.437-0.324-0.857-0.682-1.268-1.056c-0.077-0.07-0.154-0.138-0.23-0.209c-0.39-0.367-0.769-0.756-1.136-1.163
	c-0.071-0.079-0.14-0.16-0.21-0.24c-0.369-0.421-0.729-0.856-1.075-1.311c-0.007-0.009-0.014-0.017-0.021-0.026
	c-0.352-0.465-0.688-0.95-1.015-1.444c-0.062-0.094-0.125-0.187-0.187-0.282c-0.312-0.48-0.613-0.972-0.903-1.472
	c-0.055-0.095-0.108-0.19-0.162-0.286c-0.286-0.503-0.564-1.013-0.828-1.53c-0.012-0.023-0.024-0.045-0.035-0.067
	c-0.273-0.535-0.531-1.076-0.782-1.618c-0.049-0.105-0.098-0.21-0.145-0.315c-0.238-0.525-0.468-1.052-0.686-1.577
	c-0.041-0.098-0.08-0.195-0.119-0.292c-0.212-0.519-0.417-1.036-0.611-1.549c-0.012-0.031-0.024-0.062-0.036-0.093
	c-0.201-0.534-0.388-1.061-0.569-1.582c-0.036-0.103-0.072-0.206-0.107-0.308c-0.171-0.502-0.334-0.996-0.487-1.479
	c-0.028-0.088-0.054-0.174-0.081-0.261c-0.146-0.466-0.285-0.923-0.414-1.365c-0.01-0.035-0.022-0.073-0.032-0.108
	c-0.135-0.463-0.258-0.907-0.374-1.336c-0.024-0.088-0.048-0.176-0.071-0.263c-0.109-0.407-0.21-0.798-0.303-1.166
	c-0.018-0.073-0.035-0.142-0.053-0.214c-0.085-0.342-0.164-0.669-0.234-0.971c-0.008-0.034-0.017-0.072-0.025-0.105
	c-0.075-0.322-0.139-0.613-0.198-0.881c-0.006-0.03-0.013-0.059-0.019-0.088c4.521-0.371,17.515-0.936,25.531,3.645
	c-0.541,1.971-0.862,3.958-0.862,5.906c0,8.83,2.945,16.396,7.429,20.528C36.259,74.092,28.577,72.058,21.892,67.101z
	 M45.445,71.672c-0.013-0.01-0.027-0.016-0.04-0.025c-4.806-2.884-8.26-10.593-8.26-19.652c0-1.966,0.397-4.003,1.035-6.033
	c0.005-0.013,0.008-0.027,0.013-0.04c2.496-7.904,8.822-15.676,11.37-18.586c1.625,1.855,4.789,5.691,7.517,10.274
	c0.049,0.117,0.108,0.231,0.188,0.336c0.004,0.005,0.009,0.009,0.013,0.014c2.566,4.381,4.698,9.404,4.698,14.035
	c0,11.515-5.57,20.882-12.417,20.882C48.117,72.877,46.735,72.439,45.445,71.672z M78.107,67.478
	c-7.108,5.273-15.343,7.214-20.617,5.098c4.517-4.12,7.488-11.712,7.488-20.58c0-1.691-0.244-3.41-0.661-5.124
	c7.942-5.018,21.556-4.432,26.208-4.05C89.496,47.575,85.861,61.733,78.107,67.478z"/>
</svg>
